<?xml version="1.0" encoding="utf-8"?>
<!-- Generator: Adobe Illustrator 17.1.0, SVG Export Plug-In . SVG Version: 6.00 Build 0)  -->
<!DOCTYPE svg PUBLIC "-//W3C//DTD SVG 1.1//EN" "http://www.w3.org/Graphics/SVG/1.1/DTD/svg11.dtd">
<svg version="1.1" xmlns="http://www.w3.org/2000/svg" xmlns:xlink="http://www.w3.org/1999/xlink" x="0px" y="0px" width="50px"
	 height="50px" viewBox="0 0 50 50" enable-background="new 0 0 50 50" xml:space="preserve">
<g id="light_grey">
</g>
<g id="dark_grey">
	<path fill="#4D4C4D" d="M35.2,23.8c0-0.2-0.1-0.3-0.2-0.5c-0.2-0.3-0.5-0.6-0.8-0.8c-0.1-0.1-0.1-0.2-0.1-0.3
		c0.1-0.9,0.3-2.1,0.5-3c0.1-0.3,0-0.7-0.1-1c0-0.1-0.1-0.1-0.2-0.2c-0.2,0-0.4,0-0.6,0c-0.2,0-0.8-0.1-0.9-0.2
		c-0.4-0.1-1.1,0-1.6,0c0-0.3,0.1-0.5,0.1-0.7c0-0.2-0.2-0.5-0.3-0.5c-0.6,0-1.2,0-1.7,0c0,0-0.1,0-0.1,0c-0.1,0.2-0.3,0.6-0.4,0.8
		c-0.1,0.2-0.1,0.7-0.2,0.7c0,0,0,0-0.1,0c0,0-0.1-0.3-0.1-0.4c-0.4-0.9-0.4-2.2-0.8-3.1c-0.2-0.7-1.5-1.3-2.6-1.7
		c-0.7-0.2-1.4-0.3-2.1,0.2c-0.9,0.7-1.5,1.6-1.5,2.8c0,0.4,0,0.8,0,1.1c-0.1,0-0.1,0-0.1,0c-0.7,0-1.3,0-2-0.2
		c-0.1,0-0.1-0.1-0.1-0.2c0,0,0,0,0,0c-0.7-0.1-1.3,0.2-2,0c-0.1,0-0.2,0.1-0.2,0.1c-0.3,0.5-0.6,1.1-0.8,1.6
		c-0.4,1.1-0.9,2.5-1.3,3.6c0,0,0.1,0,0.1,0.1c0.1,0,0.1,0,0.4,0.1c0.1,0,0.2,0,0.2,0.1l18.3,2.2l0-0.2c0,0.1,0,0.1,0,0.2l0,0
		c0,0,0,0,0,0c0,0,0,0,0,0l0,0l0,0c0.1,0.1,0.4,0.4,0.5,0.5c-0.1,0.1-0.4,0.2-0.6,0.3l0,0l0,0c0,0,0,0-0.1,0c0,0,0,0,0,0l-16.2-1.9
		c0,0.4,0,0.8,0,1.1c0,0.8-0.1,1.6,0,2.5c0,0.6,0.1,1.3,0,1.9c0,0.4,0,0.8,0.1,1.1c0.1,0.2,0.2,0.5,0.2,0.7c0,0.1,0.1,0.2,0.1,0.2
		c0.1,0.1,0.2,0.3,0.2,0.4c0,0.7,0,1.3-0.1,2c0,0.4-0.1,0.5-0.2,1c-0.1,0.1,0,0.2,0.1,0.3c0.1,0,0.1,0,0.2,0.1
		c2.5,0.6,4.7,1.1,7.2,1.7c1.5,0.3,2.9,0.8,4.4,1c0.7,0.1,1.3-0.1,1.8-0.6c0.3-0.4,0.7-0.7,1-1.1c0.2-0.2,0.3-0.5,0.2-0.8
		c-0.1-0.4-0.2-0.8-0.1-1.2c0.1-0.4,0.1-0.8,0.1-1.3c0,0,0-0.1,0-0.1c0.1-0.5,0.2-1,0.3-1.4c0.2-1.1,0.3-1.8,0.5-2.9
		c0-0.1,0.1-0.2,0.2-0.3c0.6-0.5,1.3-1,1.9-1.5c0.1-0.1,0.2-0.2,0.2-0.4C35.3,25.2,35.2,24.5,35.2,23.8z M27,17.5
		c-0.6,0-1.1,0-1.7-0.1c-0.7-0.1-1.4-0.1-2-0.2c-0.2,0-0.4,0-0.6-0.1c-0.1,0-0.2-0.1-0.2-0.2c0-1,0.1-1.9,0.1-2.9
		c0-0.4,0.1-0.5,0.5-0.6c0.7-0.2,1.4-0.1,2,0.3c0.5,0.2,0.9,0.5,1.4,0.8c0.2,0.1,0.3,0.3,0.4,0.5c0.2,0.8,0.2,1.5,0.4,2.3
		C27,17.5,27,17.5,27,17.5z"/>
</g>
</svg>
