<?xml version="1.0" encoding="utf-8"?>
<!-- Generator: Adobe Illustrator 17.1.0, SVG Export Plug-In . SVG Version: 6.00 Build 0)  -->
<!DOCTYPE svg PUBLIC "-//W3C//DTD SVG 1.1//EN" "http://www.w3.org/Graphics/SVG/1.1/DTD/svg11.dtd">
<svg version="1.1" xmlns="http://www.w3.org/2000/svg" xmlns:xlink="http://www.w3.org/1999/xlink" x="0px" y="0px" width="50px"
	 height="50px" viewBox="0 0 50 50" enable-background="new 0 0 50 50" xml:space="preserve">
<g id="light_grey">
</g>
<g id="dark_grey">
	<g>
		<path fill="#4D4C4D" d="M31.1,35.3c-5.2-2.9-11.6-11.5-12.3-12.5c0,0,0,0,0-0.1c-0.8-1-1.4-2.1-1.4-2.1c-0.7-1.2-2.7-4.8,0.3-7.1
			c0.6-0.4,1.2-0.8,1.8-0.9c-0.2-0.1-0.5-0.1-0.7-0.1c-1,0.1-1.6,0.7-2.4,1.2c-0.3,0.2-0.5,0.5-0.8,0.7c-0.3,0.3-0.6,0.7-0.9,1.1
			c-0.4,0.4-0.7,0.8-0.7,1.4c-0.1,0.9,0,1.7,0.3,2.5c0.6,1.5,1.2,2.9,2.1,4.3c1.6,2.4,3.1,4.5,5.2,6.4c0,0,0.1,0.1,0.1,0.1
			c0.8,1.2,1.8,2.2,2.8,3.1c1.5,1.3,3.1,2.5,4.6,3.7c0.8,0.6,2,0.8,2.9,0c0.4-0.3,0.8-0.7,1.2-1C32.1,35.9,31.1,35.3,31.1,35.3z"/>
		<path fill="#4D4C4D" d="M18.1,20.2c0,0,0.1,0.2,0.3,0.5c0.1-0.1,0.2-0.2,0.2-0.3l6-4.7c-0.2-0.2-0.4-0.4-0.6-0.5c0,0-0.1,0-0.1,0
			c-0.1-0.1-0.2-0.1-0.3-0.2c-0.1-0.1-0.2-0.2-0.3-0.3c-0.5-0.4-1.1-0.8-1.7-1.1c0,0-0.1,0-0.1,0c-1.1-0.2-2.2,0-3.2,0.8
			C16.1,15.9,17.1,18.4,18.1,20.2z"/>
		<path fill="#4D4C4D" d="M36.2,31.3c-0.2-0.8-0.5-1.6-1-2.3c-0.6-0.9-1.2-1.8-1.8-2.7c-0.7-1-1.5-1.9-2.5-2.6
			c-0.2-0.1-0.3-0.3-0.4-0.6c-0.4-0.9-1-1.6-1.7-2.3c-0.3-0.3-0.5-0.5-0.7-0.9c-0.7-1.4-1.7-2.6-2.8-3.7l-6,4.7
			c-0.1,0.1-0.4,0.4,0.2,1.1c0,0,0.1,0.1,0.1,0.1c0,0,0,0,0,0c0.9,1.3,7.1,9.4,12,12.2c0,0,1.6,0.9,2.7,0.4c0.5-0.6,1-1.3,1.6-1.9
			C36.2,32.5,36.3,31.9,36.2,31.3z"/>
	</g>
</g>
</svg>
