<?xml version="1.0" encoding="utf-8"?>
<!-- Generator: Adobe Illustrator 17.1.0, SVG Export Plug-In . SVG Version: 6.00 Build 0)  -->
<!DOCTYPE svg PUBLIC "-//W3C//DTD SVG 1.1//EN" "http://www.w3.org/Graphics/SVG/1.1/DTD/svg11.dtd">
<svg version="1.1" xmlns="http://www.w3.org/2000/svg" xmlns:xlink="http://www.w3.org/1999/xlink" x="0px" y="0px" width="50px"
	 height="50px" viewBox="0 0 50 50" enable-background="new 0 0 50 50" xml:space="preserve">
<g id="light_grey">
</g>
<g id="dark_grey">
	<g>
		<path fill="#4D4C4D" d="M37.6,21.5c-0.1-1.1-0.2-2-1.4-2.3l-1.1-0.8c-1.9-1.2-3.8-2.3-5.8-3.4c-0.9-0.5-1.8-0.6-2.8-0.5
			c-1.7,0.1-3.1,0.8-4.4,1.8c-0.2,0.1-0.3,0.2-0.5,0.3c-1.4,0.4-2.7,0.9-4.1,1.2c-1.8,0.4-3.4,1-4.6,2.5c-0.2,0.3-0.4,0.6-0.5,0.9
			c0.2-0.2,0.4-0.4,0.7-0.6c1.6-1.1,4-1,5.4,1.1c1.4,2,4.8,6.2,6.3,7.9c0,0,0,0,0,0c0.3,0.3,4.8,5.1,7.2,6.1
			c0.3,0.1,0.7,0.1,0.8-0.2c0.7-1.4,1.5-2.8,2.1-4.1C36.6,28.1,37.8,25,37.6,21.5z"/>
		<path fill="#4D4C4D" d="M17.8,22.1c-1.2-1.7-3-1.6-4.2-0.9c-0.8,0.5-1.3,1.4-1.2,2.4c0.1,0.4,0.2,0.7,0.3,1c0,0,0,0,0,0
			c0.3,0.6,0.6,1.2,1.1,1.7c1.3,1.4,2.6,2.7,4,4c1.2,1.1,2.4,2.2,3.6,3.2c0.3,0.2,2-2.1,2.9-3.4C22.8,28.6,19.3,24.2,17.8,22.1z"/>
	</g>
</g>
</svg>
