<?xml version="1.0" encoding="utf-8"?>
<!-- Generator: Adobe Illustrator 17.1.0, SVG Export Plug-In . SVG Version: 6.00 Build 0)  -->
<!DOCTYPE svg PUBLIC "-//W3C//DTD SVG 1.1//EN" "http://www.w3.org/Graphics/SVG/1.1/DTD/svg11.dtd">
<svg version="1.1" xmlns="http://www.w3.org/2000/svg" xmlns:xlink="http://www.w3.org/1999/xlink" x="0px" y="0px" width="50px"
	 height="50px" viewBox="0 0 50 50" enable-background="new 0 0 50 50" xml:space="preserve">
<g id="light_grey">
</g>
<g id="dark_grey">
	<path fill="#4D4C4D" d="M38,32.2c-0.2-0.3-0.5-0.6-0.8-0.7c-1.3-0.8-2.6-1.5-3.9-2.2c-1-0.5-2-1-3-1.5c-0.3-0.2-0.5-0.4-0.6-0.8
		c-0.1-0.3-0.1-0.6-0.2-0.9c-0.6-1.9-1.4-3.7-2.3-5.5c-0.7-1.3-1.3-2.6-2-3.8c-0.7-1.3-1.8-2.3-3.1-3.1c-0.6-0.4-1.3-0.8-2-0.8
		c-0.5,0-0.9,0.1-1.5,0.1c-0.1,0-0.3,0-0.4,0c0,0-1.4,0.4-2.7,1c-1.2,0.5-2.3,1.2-2.4,1.3c-0.8,0.5-1.4,2.1-1.3,3
		c0.1,0.6,0.2,1.1,0.3,1.7c0.1,0.6,0.7,2.2,0.9,2.4c0.4,0.8,0.7,1.5,1.1,2.3c0.7,1.5,1.6,3,2.8,4.1c1.6,1.6,3.5,2.9,5.5,4.1
		c0.8,0.5,1.7,0.9,2.5,1.4c1.5,1,3.1,1.9,4.6,2.9c0.8,0.5,1.7,0.9,2.7,1c1.1,0.1,2.1-0.4,3-1.1c0.5-0.4,1-0.8,1.5-1.2
		c0.5-0.4,1.1-0.9,1.5-1.4C38.5,33.7,38.6,32.9,38,32.2z M20.2,24.9C20.1,24.9,20,25,19.9,25c-0.2,0-0.3-0.1-0.4-0.2
		c-1.2-1.7-2-3.2-2.6-4.7c-0.1-0.3,0-0.6,0.3-0.7c0.3-0.1,0.6,0,0.7,0.3c0.9,2.2,1,2.6,2.4,4.5C20.5,24.4,20.4,24.7,20.2,24.9z
		 M23.1,23.1c-0.1,0.1-0.2,0.1-0.3,0.1c-0.2,0-0.3-0.1-0.4-0.2c-1.1-1.8-1.6-2.8-2.2-4.4c-0.1-0.3,0-0.6,0.3-0.7
		c0.3-0.1,0.6,0,0.7,0.3c1,2.1,0.9,2,2.1,4.1C23.3,22.6,23.3,22.9,23.1,23.1z M30.8,32.1c-0.1,0.2-0.3,0.2-0.5,0.2
		c-0.1,0-0.2,0-0.2-0.1L27,30.5c-0.3-0.1-0.3-0.4-0.2-0.6c0.2-0.2,0.5-0.3,0.7-0.1l3.1,1.7C30.9,31.6,31,31.9,30.8,32.1z"/>
</g>
</svg>
