<?xml version="1.0" encoding="utf-8"?>
<!-- Generator: Adobe Illustrator 18.1.1, SVG Export Plug-In . SVG Version: 6.00 Build 0)  -->
<svg version="1.1" xmlns="http://www.w3.org/2000/svg" xmlns:xlink="http://www.w3.org/1999/xlink" x="0px" y="0px" width="50px"
	 height="50px" viewBox="0 0 50 50" enable-background="new 0 0 50 50" xml:space="preserve">
<g id="light_grey">
	<g>
		<g>
			<path fill="#C7C7C7" d="M27.1,29.3l14.1-14.1c0.3-0.3,0.2-0.8-0.1-1.1c-0.3-0.3-0.7-0.4-1.1-0.1L28.2,25.9c0.1-0.1,2-3.8,4.1-5.3
				c0,0,0,0,0,0c1.7-1.3,3.4-2.8,3.5-2.8c0.1,0,0.4-0.2,0.5-0.7c0.1-0.3-0.1-0.7-0.4-1.1c-0.9-1-4.8-4.3-5.1-4.5
				c-0.1-0.1-0.7-0.7-1.5-0.7c-0.1,0-0.1,0-0.2,0c-0.9,0.2-6.8,1.4-7.4,1.6c-0.4,0.1-0.6,0.2-0.7,0.4c-0.1,0.2,0,0.4,0.2,0.7
				c0,0,0,0,0,0c0.1,0.2,4.7,6.4,6,8l-2.3,0.9c0,0,0,0,0,0L23.1,18c-0.1-0.3-0.6-0.3-0.9-0.2c-0.3,0.1-0.7,0.3-0.6,0.7l1.5,4.3
				c0,0,0,0,0,0l-0.1,0l0,0L14.5,26c-0.5,0.2-0.6,0.7-0.4,1.2c0.1,0.4,0.3,0.7,0.8,0.7c0.1,0,0.2,0,0.3-0.1l5.8-2.1
				c1.2-0.3,1.3,0.6,1.8,0.9c0.5,0.3,2,0.3,2,0.9c0,0.5,0,0.9,0,1c-0.3,0-0.6,0.2-0.9,0.4c-0.4,0.3-0.6,0.8-0.5,1.3l-9.3,3.4
				c-0.1,0-0.1,0.1-0.2,0.1c-0.8-1-2-1.7-3.4-1.7c-2.4,0-4.4,2-4.4,4.4s2,4.4,4.4,4.4s4.4-2,4.4-4.4c0-0.4-0.1-0.9-0.2-1.3l9.6-3.5
				c0.2,0.1,0.3,0.1,0.5,0.2c0.2,0,0.4,0,0.6,0l0.5,0.4c-0.6,0.9-1,2-1,3.2c0,3,2.5,5.5,5.5,5.5s5.5-2.5,5.5-5.5
				c0-3-2.5-5.5-5.5-5.5c-1.3,0-2.4,0.4-3.4,1.2l-0.3-0.2c0.1-0.2,0.1-0.4,0.1-0.7C26.9,29.6,27,29.4,27.1,29.3z M10.7,35.3v-2.1
				c0.5,0,0.9,0.1,1.3,0.4L11,35.3C10.9,35.3,10.8,35.3,10.7,35.3z M10.4,35.3c-0.1,0-0.2,0-0.3,0.1l-1-1.8c0.4-0.2,0.8-0.3,1.3-0.4
				V35.3z M9.5,36.2H7.3c0-0.5,0.1-0.9,0.4-1.3l1.8,1.1C9.5,36,9.5,36.1,9.5,36.2z M9.5,36.5c0,0.1,0,0.2,0.1,0.3l-1.8,1.1
				c-0.2-0.4-0.3-0.8-0.4-1.3H9.5z M10.4,37.4v2.1c-0.5,0-0.9-0.1-1.3-0.4l1.1-1.8C10.2,37.4,10.3,37.4,10.4,37.4z M10.7,37.4
				c0.1,0,0.2,0,0.3-0.1l1.1,1.8c-0.4,0.2-0.8,0.3-1.3,0.4V37.4z M11.6,36.5h2.1c0,0.5-0.1,0.9-0.4,1.3l-1.8-1.1
				C11.6,36.7,11.6,36.6,11.6,36.5z M11.6,36.2c0-0.1,0-0.2-0.1-0.3l1.8-1.1c0.2,0.4,0.3,0.8,0.4,1.3H11.6z M13.2,34.6l-1.8,1.1
				c-0.1-0.1-0.1-0.1-0.2-0.2l1.1-1.8C12.7,33.9,13,34.2,13.2,34.6z M8.8,33.7l1.1,1.8c-0.1,0.1-0.1,0.1-0.2,0.2l-1.8-1.1
				C8.1,34.2,8.4,33.9,8.8,33.7z M7.8,38.1L9.7,37c0.1,0.1,0.1,0.1,0.2,0.2l-1.1,1.8C8.4,38.8,8.1,38.5,7.8,38.1z M12.3,39.1
				l-1.1-1.8c0.1-0.1,0.1-0.1,0.2-0.2l1.8,1.1C13,38.5,12.7,38.8,12.3,39.1z M27.7,32.4c0.1-0.1,0.1-0.2,0.1-0.3
				c0.1-0.1,0.2-0.2,0.4-0.3l1.2,2c-0.1,0.1-0.2,0.2-0.3,0.3l-2-1.2c0.1-0.1,0.2-0.2,0.3-0.4C27.5,32.7,27.6,32.6,27.7,32.4z
				 M26.8,33.4l2,1.2c-0.1,0.1-0.1,0.3-0.1,0.4h-2.4C26.4,34.5,26.6,33.9,26.8,33.4z M28.7,35.5c0,0.2,0.1,0.3,0.1,0.4l-2,1.2
				c-0.3-0.5-0.4-1-0.4-1.6H28.7z M30.2,36.9v2.4c-0.6,0-1.1-0.2-1.6-0.4l1.2-2C29.9,36.8,30,36.9,30.2,36.9z M30.6,36.9
				c0.2,0,0.3-0.1,0.4-0.1l1.2,2c-0.5,0.3-1,0.4-1.6,0.4V36.9z M32,35.5h2.4c0,0.6-0.2,1.1-0.4,1.6l-2-1.2C32,35.8,32,35.6,32,35.5z
				 M32,35.1c0-0.2-0.1-0.3-0.1-0.4l2-1.2c0.3,0.5,0.4,1,0.4,1.6H32z M30.6,33.6v-2.4c0.6,0,1.1,0.2,1.6,0.4l-1.2,2
				C30.9,33.7,30.7,33.6,30.6,33.6z M30.2,33.6c-0.2,0-0.3,0.1-0.4,0.1l-1.2-2c0.5-0.3,1-0.4,1.6-0.4V33.6z M27,37.4l2-1.2
				c0.1,0.1,0.2,0.2,0.3,0.3l-1.2,2C27.7,38.3,27.3,37.9,27,37.4z M32.5,38.6l-1.2-2c0.1-0.1,0.2-0.2,0.3-0.3l2,1.2
				C33.4,37.9,33,38.3,32.5,38.6z M33.7,33.1l-2,1.2c-0.1-0.1-0.2-0.2-0.3-0.3l1.2-2C33,32.2,33.4,32.6,33.7,33.1z"/>
		</g>
	</g>
</g>
<g id="dark_grey">
	<path fill="#4C4C4C" d="M35.8,17.7c-0.1,0.1-5.6,4.7-6.3,4.7c-1,0-1.6,0-2.1-0.7c-0.6-0.8-6.1-8.1-6.2-8.3c0,0,0,0,0,0
		c-0.1-0.2-0.2-0.5-0.2-0.7c0.1-0.2,0.3-0.3,0.7-0.4c0.6-0.2,6.5-1.4,7.4-1.6c0.1,0,0.1,0,0.2,0c0.8,0,1.4,0.6,1.5,0.7
		c0.2,0.2,4.2,3.5,5.1,4.5c0.3,0.4,0.5,0.8,0.4,1.1C36.3,17.5,35.9,17.7,35.8,17.7z"/>
</g>
</svg>
