<?xml version="1.0" encoding="utf-8"?>
<!-- Generator: Adobe Illustrator 17.1.0, SVG Export Plug-In . SVG Version: 6.00 Build 0)  -->
<!DOCTYPE svg PUBLIC "-//W3C//DTD SVG 1.1//EN" "http://www.w3.org/Graphics/SVG/1.1/DTD/svg11.dtd">
<svg version="1.1" xmlns="http://www.w3.org/2000/svg" xmlns:xlink="http://www.w3.org/1999/xlink" x="0px" y="0px" width="50px"
	 height="50px" viewBox="0 0 50 50" enable-background="new 0 0 50 50" xml:space="preserve">
<g id="light_grey">
	<g>
		<g>
			<path fill="#C7C7C7" d="M23.6,27.4C23.6,27.4,23.6,27.4,23.6,27.4l3.1-4.1l-1-0.5c0,0.1-0.2,0.4-0.2,0.4
				c-0.6,0.9-1.5,0.9-2.5,0.9c-0.6,0-1.2-0.3-1.9-0.7l2.3,4.2C23.4,27.6,23.5,27.5,23.6,27.4z M33.4,26.5c-0.6-0.3-3.8-1.8-4.4-2.1
				l-2.4,3.3c0.8-0.4,1.7-0.9,2.2-1.1c0,0,3.5,1.8,4,2.1c0.2,0.1,0.4,0.2,0.6,0.2c0.4,0,0.6-0.1,0.9-0.5c0.2-0.3,0.2-0.6,0.1-0.8
				C34.2,27.1,33.9,26.8,33.4,26.5z M28.9,32.9c-0.7,0-1.3,0.2-1.9,0.5l-1.9-2.3c-0.2,0.2-0.4,0.4-0.6,0.5l1.9,2.3
				c-0.6,0.6-1,1.5-1,2.4c0,1.9,1.6,3.5,3.5,3.5c1.9,0,3.5-1.6,3.5-3.5C32.4,34.5,30.8,32.9,28.9,32.9z M27,37.1c0,0-0.1,0-0.1-0.1
				c-0.1-0.2-0.1-0.4-0.1-0.6c0-0.4,0.1-0.8,0.4-1.2c0,0,0.1-0.1,0.1-0.1c0,0,0.1,0,0.2,0.1c0.1,0.1,0.2,0.2,0.5,0.5
				c0.1,0.1,0.2,0.2,0.3,0.3l0,0l0,0c0.1,0.1,0.1,0.2,0.1,0.2c0,0.1-0.1,0.2-0.2,0.3c-0.4,0.2-1,0.5-1,0.5
				C27.1,37.1,27.1,37.1,27,37.1z M29,38.5c0,0-0.1,0.1-0.1,0.1c-0.6,0-1.2-0.3-1.6-0.8c0-0.1,0-0.1,0-0.1c0-0.1,0.1-0.1,0.1-0.1
				c0.1,0,0.3-0.2,0.6-0.3c0.1-0.1,0.3-0.2,0.5-0.2c0,0,0.1,0,0.1,0c0.1,0,0.3,0.1,0.3,0.3l0.1,0.4c0.1,0.4,0.1,0.7,0.1,0.8
				C29,38.3,29,38.4,29,38.5z M28.8,35.9c-0.1,0-0.1,0-0.2-0.1c-0.3-0.3-0.8-0.8-0.8-0.8c-0.1-0.1-0.1-0.1-0.1-0.2
				c0,0,0-0.1,0.1-0.1c0.4-0.2,0.8-0.4,1.2-0.4c0.2,0,0.4,0,0.6,0.1c0.1,0,0.1,0.1,0.1,0.1c0,0.1,0,0.1,0,0.2c0,0.1-0.2,0.3-0.3,0.6
				c-0.1,0.1-0.2,0.3-0.2,0.5C29,35.8,28.9,35.9,28.8,35.9z M29.6,38.4C29.6,38.4,29.6,38.4,29.6,38.4c-0.1,0-0.2,0-0.2-0.2l0-0.2
				l-0.1-0.9l0,0l0,0c0-0.1,0-0.2,0.1-0.3c0.1-0.1,0.2-0.1,0.2-0.1c0,0,0,0,0,0c0.5,0.1,1.1,0.2,1.2,0.2c0.1,0,0.2,0.1,0.2,0.2
				C30.7,37.7,30.2,38.2,29.6,38.4z M30.8,36.5C30.8,36.5,30.8,36.5,30.8,36.5c-0.1,0-0.4-0.1-0.7-0.1c-0.2,0-0.3-0.1-0.5-0.1
				c-0.1,0-0.2-0.1-0.2-0.2c0-0.1-0.1-0.2,0-0.3c0.2-0.4,0.5-1,0.5-1c0-0.1,0.1-0.1,0.2-0.1c0,0,0,0,0,0c0.5,0.4,0.8,1,0.8,1.6
				C31,36.5,30.9,36.5,30.8,36.5z M19.3,32.6c-0.1,0.1-0.2,0.2-0.3,0.3c-0.2,0.2-0.3,0.3-0.3,0.3c-0.2,0.1-0.3,0.2-0.4,0.2h-0.6v-1
				c0,0,0-0.1-0.1-0.1h-0.8c0,0-0.1,0-0.1,0.1v1.9c0,0,0,0.1,0.1,0.1h1.5c0.4,0,0.7-0.2,1-0.4c0,0,0.1-0.1,0.3-0.3
				c0.1-0.1,0.2-0.2,0.3-0.3c0.6-0.5,1.5-1.2,2.3-1.9c-0.3-0.2-0.4-0.5-0.6-0.7C20.8,31.4,19.9,32.1,19.3,32.6z M38,10.3
				c-0.1-0.1-0.3-0.2-0.5-0.2c-0.2,0-0.3,0.1-0.4,0.1c0,0,0,0-0.1,0.1L24.4,27.2c0.1,0,0.2,0.1,0.3,0.1l0.6,0.5
				c0.1,0.1,0.1,0.1,0.2,0.2l12.6-16.9C38.2,11.1,38.4,10.8,38,10.3z M25,29.5c0-0.4,0.1-0.7,0.1-0.7c0.1-0.2,0.1-0.4-0.1-0.5
				l-0.6-0.5c-0.1,0-0.1-0.1-0.2-0.1c-0.1,0-0.2,0-0.3,0.1c-0.2,0.2-0.4,0.4-0.7,0.5c-0.4,0.1-0.7,0.3-1,0.6
				c-0.5,0.7-0.4,1.6,0.3,2.2c0.3,0.2,0.6,0.3,0.9,0.3c0.5,0,0.9-0.2,1.2-0.6C25,30.4,25.1,29.9,25,29.5z M16.4,36.1
				c0.1,0,0.3,0,0.4,0.1c0,0,0.1,0,0.1,0.1c0,0,0,0,0,0V36c0-0.4,0.1-0.4,0.3-0.4c0.1,0,0.3,0,0.3,0l0,0h0c0.1,0,0.1,0,0.2-0.1
				c0.1,0,0.1-0.1,0.1-0.2v-0.2c0-0.1-0.1-0.3-0.3-0.3h-1.3c-0.1,0-0.3,0.1-0.3,0.3v1c0,0,0.1,0,0.1,0
				C16.3,36.1,16.3,36.1,16.4,36.1z M18.3,36.3c-0.3,0-0.6,0.1-0.9,0.2l0.8,0.5c0,0,0,0,0.1,0c0.1,0,0.2,0,0.3,0.1
				c0.5,0.2,0.8,0.8,0.6,1.3c-0.1,0.4-0.5,0.6-0.8,0.6c0,0-0.1,0-0.1,0c-0.1,0-0.2,0-0.3-0.1c-0.2-0.1-0.3-0.2-0.4-0.3l-0.9-0.2
				c0.2,0.8,0.9,1.3,1.7,1.3c1,0,1.8-0.8,1.8-1.8S19.3,36.3,18.3,36.3z M18.2,38.5c0.1,0,0.1,0,0.2,0c0,0,0,0,0,0
				c0.2,0,0.3-0.1,0.4-0.3c0.1-0.2,0-0.5-0.3-0.6c-0.1,0-0.1,0-0.2,0c0,0,0,0,0,0c0,0-0.1,0-0.1,0l-1.3-0.8
				c-0.1-0.1-0.1-0.1-0.2-0.1c-0.1,0-0.1,0-0.2,0c0,0,0,0-0.1,0c-0.2,0-0.4,0.2-0.5,0.4c-0.1,0.2-0.1,0.3,0,0.5
				c0.1,0.2,0.2,0.3,0.3,0.3c0.1,0,0.1,0,0.2,0l1.5,0.3C17.9,38.4,18,38.5,18.2,38.5z"/>
		</g>
	</g>
</g>
<g id="dark_grey">
	<g>
		<g>
			<path fill="#4C4C4C" d="M29.3,14.5c-0.1-0.2-0.3-0.3-0.7-0.4c-0.6-0.1-5-1.1-6-1.2c-0.1,0-0.1,0-0.2,0c-0.8,0-1.4,0.6-1.5,0.7
				c-0.2,0.2-4,3.9-4.8,4.9c-0.3,0.4-0.4,0.8-0.4,1.1c0.1,0.4,0.5,0.6,0.5,0.7c0.1,0.1,1.6,0.9,4,2.1c1.1,0.5,1.9,1.2,2.6,1.2
				c1,0,1.6-0.1,2.1-0.7c0.6-0.8,4-7.4,4.2-7.7c0,0,0,0,0,0C29.3,14.9,29.4,14.7,29.3,14.5z"/>
		</g>
	</g>
</g>
</svg>
