<?xml version="1.0" encoding="utf-8"?>
<!-- Generator: Adobe Illustrator 18.1.0, SVG Export Plug-In . SVG Version: 6.00 Build 0)  -->
<svg version="1.1" xmlns="http://www.w3.org/2000/svg" xmlns:xlink="http://www.w3.org/1999/xlink" x="0px" y="0px" width="50px"
	 height="50px" viewBox="0 0 50 50" enable-background="new 0 0 50 50" xml:space="preserve">
<g id="light_grey">
</g>
<g id="dark_grey">
	<path fill="#4D4C4D" d="M29.6,22.5c-0.3-2.7-1.2-9.8-4.6-9.8c-0.1,0-0.2,0-0.3,0c-3.4,0.4-3.5,6.9-3.3,9.7l-3.6,0l1,13.8
		c0,0.5,0.4,0.9,0.9,1c1,0.3,3,0.7,5.7,0.8c2.6,0.2,4.8,0,6-0.2c0.6-0.1,1-0.5,1-1.1l0.8-14.2L29.6,22.5z M25,14.4
		c1.2,0,2.7,3.8,2.8,8l-4.8-0.1C23,18.1,23.6,14.6,25,14.4z"/>
</g>
</svg>
