<?xml version="1.0" encoding="utf-8"?>
<!-- Generator: Adobe Illustrator 17.1.0, SVG Export Plug-In . SVG Version: 6.00 Build 0)  -->
<!DOCTYPE svg PUBLIC "-//W3C//DTD SVG 1.1//EN" "http://www.w3.org/Graphics/SVG/1.1/DTD/svg11.dtd">
<svg version="1.1" xmlns="http://www.w3.org/2000/svg" xmlns:xlink="http://www.w3.org/1999/xlink" x="0px" y="0px" width="50px"
	 height="50px" viewBox="0 0 50 50" enable-background="new 0 0 50 50" xml:space="preserve">
<g id="light_grey">
</g>
<g id="dark_grey">
	<path fill="#4D4C4D" d="M38.1,26.5c-1.3,1.1-4.1,1.6-7.1,2.3c-3.6,0.7-7.6,1.5-9.3,3.3c-0.1,0.1-0.2,0.1-0.3,0.1
		c-0.1,0-0.2,0-0.3-0.1c-0.2-0.2-0.2-0.5,0-0.7c1.9-2,5.9-2.8,9.8-3.6c3.1-0.6,6.3-1.3,7.1-2.4c0.1-0.1,0.2-0.2,0.3-0.2
		c0.2-0.3,0.4-0.5,0.6-0.8c0.3-0.4,0.2-0.8-0.2-1.1c-0.7-0.6-1.3-1.2-2-1.9c-0.6-0.7-1.4-1.2-2.2-1.5c-0.5-0.2-1-0.3-1.5-0.5
		c-0.1,0-0.2-0.1-0.3-0.2c-0.1-0.1-0.2-0.3-0.3-0.3c-0.2-0.1-0.4-0.1-0.5-0.2c-0.5-0.5-1.1-0.9-1.6-1.4c-0.8-0.8-1.7-0.9-2.7-0.7
		c-0.8,0.2-1.6,0.7-2.4,1c-0.6,0.3-1.2,0.5-1.8,0.8c-0.8,0.3-1.7,0.5-2.5,0.8c-0.1,0-0.2,0.1-0.3,0.1c-1,0.1-2.1,0.1-3.1,0.2
		c-0.8,0-1.6,0.1-2.4,0.2c-0.4,0.1-0.8,0.3-1.1,0.5c-1,0.7-1.6,1.9-2.2,2.9c-0.1,0.2-0.2,0.2-0.2,0.4c-0.4,0.7,0.1,1,1.8,2.2
		c1.2,0.9,2.9,2,4.8,4.1c0.2,0.3,1.4-0.7,2.1-1.2c0.5-0.4,1.1-0.8,1.6-1.2c1.4-0.9,3.8-1.3,6.4-1.7c2.6-0.4,5.4-0.9,6.6-1.8
		c0.2-0.2,0.5-0.1,0.7,0.1c0.2,0.2,0.1,0.5-0.1,0.7c-1.4,1.1-4.1,1.6-7,2c-2.4,0.4-4.8,0.8-6.1,1.6c-0.5,0.3-1,0.7-1.5,1.1
		c-0.9,0.7-1.8,1.4-2.6,1.4c-0.3,0-0.5-0.1-0.8-0.3c-1.9-2-3.5-3.1-4.7-4c-0.8-0.6-1.5-1.1-1.8-1.6c0,0,0,0,0,0.1
		c-0.1,0.2,0,0.4,0,0.6c0,0.2,0.1,0.5,0.2,0.7c0.1,0.4,0.2,0.9,0.4,1.3c0.5,0.9,1.2,1.7,2,2.4c0.7,0.6,1.4,1.1,2,1.7
		c0.5,0.5,1.1,1,1.8,1.4c0.2,0.1,0.4,0.3,0.5,0.4c0.4,0.5,0.9,0.7,1.4,0.8c0.4,0,0.7,0,1.1,0c1.2,0,2.2-0.3,3.2-1
		c0.4-0.3,0.8-0.6,1.3-0.8c1.1-0.4,2.3-0.7,3.5-1c1.8-0.4,3.7-0.8,5.5-1.3c1.3-0.3,2.7-0.7,4-1c0.4-0.1,0.8-0.1,0.8-0.7c0,0,0,0,0,0
		c0.3-0.5,0.1-0.9-0.2-1.3C38.4,26.8,38.3,26.7,38.1,26.5z"/>
</g>
</svg>
